<?xml version="1.0" encoding="UTF-8"?>
<svg version="1.1" xmlns="http://www.w3.org/2000/svg" width="1024" height="1024">
<path d="M0 0 C337.92 0 675.84 0 1024 0 C1024 337.92 1024 675.84 1024 1024 C686.08 1024 348.16 1024 0 1024 C0 686.08 0 348.16 0 0 Z " fill="#E6E6E6" transform="translate(0,0)"/>
<path d="M0 0 C0.73347656 0.6084375 1.46695312 1.216875 2.22265625 1.84375 C6.97172806 5.86993805 11.00576101 10.23479906 15 15 C16.14275391 16.29357422 16.14275391 16.29357422 17.30859375 17.61328125 C24.1749468 25.52940435 29.74323796 33.94528016 35 43 C35.39606445 43.67691895 35.79212891 44.35383789 36.20019531 45.05126953 C45.57393405 61.27147558 51.38599467 78.66226923 55 97 C55.22429687 98.08667969 55.22429687 98.08667969 55.453125 99.1953125 C59.68400892 120.13089328 58.78683369 141.06321876 55 162 C54.79914795 163.1139917 54.79914795 163.1139917 54.59423828 164.25048828 C48.23762531 197.83651975 31.42526751 227.44621595 8 252 C7.27167969 252.78117187 6.54335938 253.56234375 5.79296875 254.3671875 C-3.5167749 264.07419294 -14.43734206 272.1786436 -26 279 C-26.57943359 279.34772461 -27.15886719 279.69544922 -27.75585938 280.05371094 C-66.15368909 302.99293252 -113.34198557 310.54088984 -157 300 C-203.02075956 287.63552193 -242.72754167 258.82095012 -266.68945312 217.34912109 C-290.07736817 175.42689335 -296.05613994 128.16695941 -283.79345703 81.78027344 C-276.31832193 55.58740003 -262.63177658 31.03113331 -243.53076172 11.56591797 C-241.83680659 9.83305861 -240.17151379 8.07462002 -238.50390625 6.31640625 C-173.80547045 -61.07602161 -69.09895667 -58.05574442 0 0 Z " fill="#1591CE" transform="translate(632,375)"/>
<path d="M0 0 C15.18 0 30.36 0 46 0 C55.3893527 24.88178466 64.59371436 49.81862259 73.19091797 74.98632812 C76.54176341 84.75928968 80.02957608 94.47908843 83.5625 104.1875 C83.96166626 105.28602295 83.96166626 105.28602295 84.36889648 106.40673828 C86.91024311 113.82068991 86.91024311 113.82068991 90 121 C90.25652344 120.14664063 90.51304687 119.29328125 90.77734375 118.4140625 C96.39779767 100.05769783 102.81611008 81.97796789 109.6262207 64.03222656 C112.75258943 55.75570853 115.66441936 47.4145304 118.53710938 39.04711914 C121.25755113 31.12818001 124.01816599 23.224743 126.82498169 15.33605957 C127.49010638 13.46532683 128.15218102 11.59351056 128.81420898 9.72167969 C129.21583252 8.59536133 129.61745605 7.46904297 130.03125 6.30859375 C130.38767578 5.30626709 130.74410156 4.30394043 131.11132812 3.27124023 C132 1 132 1 133 0 C134.41225046 -0.0928726 135.82908934 -0.11746772 137.24438477 -0.11352539 C138.14524307 -0.11344986 139.04610138 -0.11337433 139.97425842 -0.11329651 C140.95341721 -0.10813522 141.93257599 -0.10297394 142.94140625 -0.09765625 C143.93881332 -0.0962413 144.9362204 -0.09482635 145.96385193 -0.09336853 C149.16343124 -0.08775114 152.36294169 -0.07519571 155.5625 -0.0625 C157.72591045 -0.05748724 159.88932199 -0.05292395 162.05273438 -0.04882812 C167.36851325 -0.03777607 172.68425171 -0.02102104 178 0 C177.35933062 3.67366967 176.35606301 6.98060859 175.0234375 10.4609375 C174.60803711 11.55132324 174.19263672 12.64170898 173.76464844 13.76513672 C173.30606445 14.9563916 172.84748047 16.14764648 172.375 17.375 C171.88543636 18.65499375 171.39618741 19.9351079 170.90722656 21.21533203 C169.56244076 24.73255057 168.21220962 28.24765452 166.86047363 31.76220703 C165.99048142 34.02475453 165.12155143 36.28770729 164.25292969 38.55078125 C160.81263922 47.51317475 157.36568998 56.472992 153.91494751 65.43136597 C150.75096886 73.64543661 147.5911363 81.86109911 144.43182373 90.07696533 C143.50108844 92.49716972 142.57015718 94.91729863 141.63916016 97.33740234 C138.76901072 104.79847536 135.8997566 112.25988882 133.03373718 119.72254944 C126.07692336 137.83681754 119.09910396 155.94087589 112 174 C96.49 174 80.98 174 65 174 C62.08487718 167.00370524 59.18668393 160.03679351 56.4765625 152.96484375 C56.16729828 152.16123917 55.85803406 151.35763458 55.53939819 150.52967834 C54.8916636 148.84537461 54.24474585 147.16075652 53.59863281 145.47583008 C52.63571562 142.96543639 51.66962628 140.45628129 50.703125 137.94726562 C47.21101216 128.86534793 43.77637636 119.76536115 40.45254517 110.62034607 C39.03497028 106.73632736 37.56356505 102.88284434 36.01660156 99.04833984 C34.05743863 94.18489 32.23967397 89.27952529 30.4609375 84.34765625 C30.13844025 83.45800674 29.81594299 82.56835724 29.4836731 81.65174866 C28.79890694 79.76248169 28.114828 77.87296551 27.43139648 75.98321533 C25.64284826 71.03825356 23.84886556 66.09526513 22.0546875 61.15234375 C21.70206848 60.18067261 21.34944946 59.20900146 20.98614502 58.20788574 C18.18756883 50.50225074 15.35688177 42.80920558 12.5 35.125 C9.43712058 26.88266386 6.38858794 18.63550778 3.375 10.375 C3.03146484 9.43672363 2.68792969 8.49844727 2.33398438 7.53173828 C1.87088867 6.25919189 1.87088867 6.25919189 1.3984375 4.9609375 C1.12692871 4.21634277 0.85541992 3.47174805 0.57568359 2.70458984 C0 1 0 1 0 0 Z " fill="#F7F8F9" transform="translate(427,422)"/>
<path d="M0 0 C1.98 0 3.96 0 6 0 C5.01 2.97 4.02 5.94 3 9 C0.87491756 5.81237635 0.4979837 3.73487777 0 0 Z " fill="#2A9ACC" transform="translate(514,535)"/>
<path d="M0 0 C0.33 0 0.66 0 1 0 C1 2.97 1 5.94 1 9 C0.01 9 -0.98 9 -2 9 C-2.25 3.375 -2.25 3.375 0 0 Z " fill="#0C87C5" transform="translate(495,470)"/>
<path d="M0 0 C2.31 0 4.62 0 7 0 C7 0.66 7 1.32 7 2 C4.03 2.66 1.06 3.32 -2 4 C-1.34 2.68 -0.68 1.36 0 0 Z " fill="#0E87C3" transform="translate(457,664)"/>
<path d="M0 0 C0.33 0 0.66 0 1 0 C1 2.64 1 5.28 1 8 C0.01 8.33 -0.98 8.66 -2 9 C-2.33 7.68 -2.66 6.36 -3 5 C-2.34 5 -1.68 5 -1 5 C-0.67 3.35 -0.34 1.7 0 0 Z " fill="#118BC7" transform="translate(479,424)"/>
<path d="M0 0 C0.66 0.33 1.32 0.66 2 1 C1.67 2.98 1.34 4.96 1 7 C0.01 7 -0.98 7 -2 7 C-1.125 1.125 -1.125 1.125 0 0 Z " fill="#F1F4F5" transform="translate(348,450)"/>
<path d="M0 0 C1.46795245 3.81667636 0.59626457 6.32859149 -1 10 C-1.99 10.66 -2.98 11.32 -4 12 C-2.66666667 8 -1.33333333 4 0 0 Z " fill="#2F9DD0" transform="translate(599,438)"/>
</svg>
